<?xml version="1.0" encoding="UTF-8"?>
<svg xmlns:xlink="http://www.w3.org/1999/xlink" xmlns="http://www.w3.org/2000/svg" viewBox="0 0 338.76 438.55">
    <defs>
        <style>.h{fill:none;}.i{clip-path:url(#e);}.j{clip-path:url(#g);}</style>
        <clipPath id="e">
            <rect class="h" width="338.76" height="219.27"/>
        </clipPath>
        <clipPath id="g">
            <rect class="h" y="219.27" width="338.76" height="219.27"/>
        </clipPath>
    </defs>
    <g id="a"/>
    <g id="b">
        <g id="c">
            <g>
                <g id="d">
                    <g class="i">
                        <path
                            d="M202.17,219.27c.02-4.92-19.23-13.11-19.23-13.11-3.86-1.94-8.44,.57-8.93,4.86-.35,3.09,0,6.33,2.3,8.25h25.87Z"/>
                        <path
                            d="M56.43,57.51l13.18,50.25c1.49,5.66,8.58,7.55,12.68,3.37l28.17-28.71c3.17-3.23,1.98-8.66-2.25-10.27l-47.84-18.18c-2.27-.86-4.56,1.2-3.94,3.54Z"/>
                        <path
                            d="M283.62,219.27c0-29.25-3.73-59.44-16.76-80.43-13.03-20.99-30.37-36.91-52.03-47.75-19.35-9.68-40.03-15.04-62.05-16.08-5.85-.27-11.65-1.36-17.23-3.13L47.43,43.96c0,45.79,32.34,129.52,32.34,175.32H29.76C30.12,183.88,6.95,47.98,.11,8.69-.78,3.53,3.79-.89,8.92,.15l122.2,24.73c45.82,7.18,87.42,11.14,118.59,29.55,31.16,18.42,53.88,42.16,68.14,71.24,14.26,29.09,20.91,61.25,20.91,93.59"/>
                    </g>
                </g>
                <g id="f">
                    <g class="j">
                        <path
                            d="M202.17,219.27c.02,4.92-19.23,13.11-19.23,13.11-3.86,1.94-8.44-.57-8.93-4.86-.35-3.09,0-6.33,2.3-8.25h25.87Z"/>
                        <path
                            d="M56.43,381.03l13.18-50.25c1.49-5.66,8.58-7.55,12.68-3.37l28.17,28.71c3.17,3.23,1.98,8.66-2.25,10.27l-47.84,18.18c-2.27,.86-4.56-1.2-3.94-3.54Z"/>
                        <path
                            d="M283.62,219.27c0,29.25-3.73,59.44-16.76,80.43-13.03,20.99-30.37,36.91-52.03,47.75-19.35,9.68-40.03,15.04-62.05,16.08-5.85,.27-11.65,1.36-17.23,3.13l-88.13,27.93c0-45.79,32.34-129.52,32.34-175.32H29.76C30.12,254.66,6.95,390.56,.11,429.86c-.9,5.16,3.68,9.58,8.8,8.54l122.2-24.73c45.82-7.18,87.42-11.14,118.59-29.55,31.16-18.42,53.88-42.16,68.14-71.24,14.26-29.09,20.91-61.25,20.91-93.59"/>
                    </g>
                </g>
            </g>
        </g>
    </g>
</svg>
